<svg xmlns="http://www.w3.org/2000/svg" viewBox="0 0 480 300" width="480" height="300" role="img" aria-label="Bolsa de terciopelo con cordón">

  <defs>
    <linearGradient id="card" x1="0" y1="0" x2="0" y2="1">
      <stop offset="0" stop-color="#2a1f4d"/><stop offset="1" stop-color="#181030"/>
    </linearGradient>
    <linearGradient id="gold" x1="0" y1="0" x2="1" y2="1">
      <stop offset="0" stop-color="#f3d79b"/><stop offset="1" stop-color="#c99a4c"/>
    </linearGradient>
    <linearGradient id="velvet" x1="0" y1="0" x2="1" y2="1">
      <stop offset="0" stop-color="#5b3fa8"/><stop offset="1" stop-color="#2b1c56"/>
    </linearGradient>
  </defs>
<rect width="480" height="300" fill="#1b1430"/><circle cx="14" cy="248" r="1" fill="#f3d79b" opacity="0.5"/><circle cx="80" cy="30" r="1" fill="#f3d79b" opacity="0.3"/><circle cx="282" cy="126" r="2" fill="#f3d79b" opacity="0.3"/><circle cx="83" cy="24" r="2" fill="#f3d79b" opacity="0.3"/><circle cx="77" cy="126" r="2" fill="#f3d79b" opacity="0.75"/><circle cx="237" cy="277" r="1.4" fill="#f3d79b" opacity="0.3"/><circle cx="311" cy="55" r="1" fill="#f3d79b" opacity="0.3"/><circle cx="402" cy="214" r="1.4" fill="#f3d79b" opacity="0.3"/><circle cx="113" cy="177" r="1.4" fill="#f3d79b" opacity="0.5"/><circle cx="313" cy="134" r="1" fill="#f3d79b" opacity="0.75"/><circle cx="119" cy="221" r="2" fill="#f3d79b" opacity="0.75"/><circle cx="288" cy="38" r="1" fill="#f3d79b" opacity="0.3"/><circle cx="190" cy="76" r="1" fill="#f3d79b" opacity="0.3"/><circle cx="436" cy="200" r="1" fill="#f3d79b" opacity="0.3"/><circle cx="384" cy="279" r="1.4" fill="#f3d79b" opacity="0.75"/><circle cx="422" cy="119" r="1" fill="#f3d79b" opacity="0.5"/><circle cx="381" cy="196" r="1" fill="#f3d79b" opacity="0.5"/><circle cx="336" cy="120" r="1.4" fill="#f3d79b" opacity="0.3"/><circle cx="142" cy="180" r="1.4" fill="#f3d79b" opacity="0.5"/><circle cx="300" cy="210" r="1.4" fill="#f3d79b" opacity="0.75"/><circle cx="341" cy="169" r="1" fill="#f3d79b" opacity="0.75"/><circle cx="56" cy="164" r="1" fill="#f3d79b" opacity="0.75"/>
  <g transform="translate(240 160)">
    <path d="M-72 -34c0 0 20-18 72-18s72 18 72 18c14 40 10 84-14 104-22 18-94 18-116 0-24-20-28-64-14-104z" fill="url(#velvet)" stroke="url(#gold)" stroke-width="2"/>
    <path d="M-74 -36c22-10 46-14 74-14s52 4 74 14" fill="none" stroke="url(#gold)" stroke-width="4" stroke-linecap="round"/>
    <path d="M-36 -44c-10-14-6-26 6-30M40 -44c10-14 6-26-6-30" fill="none" stroke="#e8c07a" stroke-opacity=".7" stroke-width="3"/>
    <g opacity=".75">
      <path d="M0 6 8 28h24l-19 14 7 23L0 51l-20 14 7-23-19-14h24z" fill="url(#gold)" transform="translate(0 -8) scale(.9)"/>
    </g>
  </g>
  <text x="240" y="272" text-anchor="middle" font-family="Georgia,serif" font-size="16" fill="#b6abd4" letter-spacing="3">TERCIOPELO</text>
</svg>